<svg xmlns:xlink="http://www.w3.org/1999/xlink" width="16" xmlns="http://www.w3.org/2000/svg" height="16" id="screenshot-034244b6-3ff0-80df-8003-339e4ca0c44e" viewBox="-0.5 -0.5 16 16" style="-webkit-print-color-adjust: exact;" fill="none" version="1.1"><g id="shape-034244b6-3ff0-80df-8003-339e4ca0c44e" width="24" class="feather feather-camera" height="24" rx="0" ry="0" style="fill: rgb(0, 0, 0);"><g id="shape-034244b6-3ff0-80df-8003-339e4ca0c453"><g class="fills" id="fills-034244b6-3ff0-80df-8003-339e4ca0c453"><path fill="none" stroke-linecap="round" stroke-linejoin="round" rx="0" ry="0" d="M14.375,11.875C14.375,12.565,13.815,13.125,13.125,13.125L1.875,13.125C1.185,13.125,0.625,12.565,0.625,11.875L0.625,5.000C0.625,4.310,1.185,3.750,1.875,3.750L4.375,3.750L5.625,1.875L9.375,1.875L10.625,3.750L13.125,3.750C13.815,3.750,14.375,4.310,14.375,5.000Z" style="fill: none;"/></g><g id="strokes-034244b6-3ff0-80df-8003-339e4ca0c453" class="strokes"><g class="stroke-shape"><path stroke-linecap="round" stroke-linejoin="round" rx="0" ry="0" d="M14.375,11.875C14.375,12.565,13.815,13.125,13.125,13.125L1.875,13.125C1.185,13.125,0.625,12.565,0.625,11.875L0.625,5.000C0.625,4.310,1.185,3.750,1.875,3.750L4.375,3.750L5.625,1.875L9.375,1.875L10.625,3.750L13.125,3.750C13.815,3.750,14.375,4.310,14.375,5.000Z" style="fill: none; stroke-width: 1; stroke: rgb(0, 0, 0); stroke-opacity: 1;"/></g></g></g><g id="shape-034244b6-3ff0-80df-8003-339e4ca0c454"><g class="fills" id="fills-034244b6-3ff0-80df-8003-339e4ca0c454"><ellipse cy="8.124999999999773" stroke-linejoin="round" transform="matrix(1.000000, 0.000000, 0.000000, 1.000000, 0.000000, 0.000000)" style="fill: none;" ry="2.4999999999997726" fill="none" stroke-linecap="round" rx="2.5" cx="7.5"/></g><g id="strokes-034244b6-3ff0-80df-8003-339e4ca0c454" class="strokes"><g class="stroke-shape"><ellipse stroke-linecap="round" stroke-linejoin="round" rx="2.5" ry="2.4999999999997726" cx="7.5" cy="8.124999999999773" transform="matrix(1.000000, 0.000000, 0.000000, 1.000000, 0.000000, 0.000000)" style="fill: none; stroke-width: 1; stroke: rgb(0, 0, 0); stroke-opacity: 1;"/></g></g></g></g></svg>