<svg xmlns:xlink="http://www.w3.org/1999/xlink" width="13" xmlns="http://www.w3.org/2000/svg" height="13" id="screenshot-0fd856ee-5ee7-80dc-8003-33abf73565d6" viewBox="-0.5 -0.5 13 13" style="-webkit-print-color-adjust: exact;" fill="none" version="1.1"><g id="shape-0fd856ee-5ee7-80dc-8003-33abf73565d6" width="24" class="feather feather-edit-3" height="24" rx="0" ry="0" style="fill: rgb(0, 0, 0);"><g id="shape-0fd856ee-5ee7-80dc-8003-33abf73565d8"><g class="fills" id="fills-0fd856ee-5ee7-80dc-8003-33abf73565d8"><path fill="none" stroke-linecap="round" stroke-linejoin="round" rx="0" ry="0" d="M6.000,10.000L10.500,10.000" style="fill: none;"/></g><g id="strokes-0fd856ee-5ee7-80dc-8003-33abf73565d8" class="strokes"><g class="stroke-shape"><path stroke-linecap="round" stroke-linejoin="round" rx="0" ry="0" d="M6.000,10.000L10.500,10.000" style="fill: none; stroke-width: 1; stroke: rgb(255, 255, 255); stroke-opacity: 1;"/></g></g></g><g id="shape-0fd856ee-5ee7-80dc-8003-33abf73565d9"><g class="fills" id="fills-0fd856ee-5ee7-80dc-8003-33abf73565d9"><path fill="none" stroke-linecap="round" stroke-linejoin="round" rx="0" ry="0" d="M8.250,1.750C8.664,1.336,9.336,1.336,9.750,1.750C10.164,2.164,10.164,2.836,9.750,3.250L3.500,9.500L1.500,10.000L2.000,8.000L8.250,1.750ZZ" style="fill: none;"/></g><g id="strokes-0fd856ee-5ee7-80dc-8003-33abf73565d9" class="strokes"><g class="stroke-shape"><path stroke-linecap="round" stroke-linejoin="round" rx="0" ry="0" d="M8.250,1.750C8.664,1.336,9.336,1.336,9.750,1.750C10.164,2.164,10.164,2.836,9.750,3.250L3.500,9.500L1.500,10.000L2.000,8.000L8.250,1.750ZZ" style="fill: none; stroke-width: 1; stroke: rgb(255, 255, 255); stroke-opacity: 1;"/></g></g></g></g></svg>