<svg xmlns:xlink="http://www.w3.org/1999/xlink" width="16" xmlns="http://www.w3.org/2000/svg" height="16" id="screenshot-034244b6-3ff0-80df-8003-339e4ca0bef7" viewBox="-0.5 -0.5 16 16" style="-webkit-print-color-adjust: exact;" fill="none" version="1.1"><g id="shape-034244b6-3ff0-80df-8003-339e4ca0bef7" width="24" class="feather feather-hard-drive" height="24" rx="0" ry="0" style="fill: rgb(0, 0, 0);"><g id="shape-034244b6-3ff0-80df-8003-339e4ca0bf03"><g class="fills" id="fills-034244b6-3ff0-80df-8003-339e4ca0bf03"><path fill="none" stroke-linejoin="round" stroke-linecap="round" rx="0" ry="0" d="M13.750,7.500L1.250,7.500" style="fill: none;"/></g><g id="strokes-034244b6-3ff0-80df-8003-339e4ca0bf03" class="strokes"><g class="stroke-shape"><path stroke-linejoin="round" stroke-linecap="round" rx="0" ry="0" d="M13.750,7.500L1.250,7.500" style="fill: none; stroke-width: 1; stroke: rgb(255, 255, 255); stroke-opacity: 1;"/></g></g></g><g id="shape-034244b6-3ff0-80df-8003-339e4ca0bf04"><g class="fills" id="fills-034244b6-3ff0-80df-8003-339e4ca0bf04"><path fill="none" stroke-linecap="round" stroke-linejoin="round" rx="0" ry="0" d="M3.406,3.194L1.250,7.500L1.250,11.250C1.250,11.940,1.810,12.500,2.500,12.500L12.500,12.500C13.190,12.500,13.750,11.940,13.750,11.250L13.750,7.500L11.594,3.194C11.383,2.769,10.949,2.500,10.475,2.500L4.525,2.500C4.051,2.500,3.617,2.769,3.406,3.194ZZ" style="fill: none;"/></g><g id="strokes-034244b6-3ff0-80df-8003-339e4ca0bf04" class="strokes"><g class="stroke-shape"><path stroke-linecap="round" stroke-linejoin="round" rx="0" ry="0" d="M3.406,3.194L1.250,7.500L1.250,11.250C1.250,11.940,1.810,12.500,2.500,12.500L12.500,12.500C13.190,12.500,13.750,11.940,13.750,11.250L13.750,7.500L11.594,3.194C11.383,2.769,10.949,2.500,10.475,2.500L4.525,2.500C4.051,2.500,3.617,2.769,3.406,3.194ZZ" style="fill: none; stroke-width: 1; stroke: rgb(255, 255, 255); stroke-opacity: 1;"/></g></g></g><g id="shape-034244b6-3ff0-80df-8003-339e4ca0bf05"><g class="fills" id="fills-034244b6-3ff0-80df-8003-339e4ca0bf05"><path fill="none" stroke-linejoin="round" stroke-linecap="round" rx="0" ry="0" d="M3.750,10.000L3.750,10.000Z" style="fill: none;"/></g><g id="strokes-034244b6-3ff0-80df-8003-339e4ca0bf05" class="strokes"><g class="stroke-shape"><path stroke-linejoin="round" stroke-linecap="round" rx="0" ry="0" d="M3.750,10.000L3.750,10.000Z" style="fill: none; stroke-width: 1; stroke: rgb(255, 255, 255); stroke-opacity: 1;"/></g></g></g><g id="shape-034244b6-3ff0-80df-8003-339e4ca0bf06"><g class="fills" id="fills-034244b6-3ff0-80df-8003-339e4ca0bf06"><path fill="none" stroke-linejoin="round" stroke-linecap="round" rx="0" ry="0" d="M6.250,10.000L6.250,10.000Z" style="fill: none;"/></g><g id="strokes-034244b6-3ff0-80df-8003-339e4ca0bf06" class="strokes"><g class="stroke-shape"><path stroke-linejoin="round" stroke-linecap="round" rx="0" ry="0" d="M6.250,10.000L6.250,10.000Z" style="fill: none; stroke-width: 1; stroke: rgb(255, 255, 255); stroke-opacity: 1;"/></g></g></g></g></svg>