<svg xmlns:xlink="http://www.w3.org/1999/xlink" width="21" xmlns="http://www.w3.org/2000/svg" height="21" id="screenshot-034244b6-3ff0-80df-8003-339e4ca10de0" viewBox="-0.5 -0.5 21 21" style="-webkit-print-color-adjust: exact;" fill="none" version="1.1"><g id="shape-034244b6-3ff0-80df-8003-339e4ca10de0" width="24" class="feather feather-help-circle" height="24" rx="0" ry="0" style="fill: rgb(0, 0, 0);"><g id="shape-034244b6-3ff0-80df-8003-339e4ca10de3"><g class="fills" id="fills-034244b6-3ff0-80df-8003-339e4ca10de3"><ellipse cy="10.000000000000227" stroke-linejoin="round" transform="matrix(1.000000, 0.000000, 0.000000, 1.000000, 0.000000, 0.000000)" style="fill: none;" ry="8.333333333333258" fill="none" stroke-linecap="round" rx="8.333333333333485" cx="9.999999999999545"/></g><g id="strokes-034244b6-3ff0-80df-8003-339e4ca10de3" class="strokes"><g class="stroke-shape"><ellipse stroke-linecap="round" stroke-linejoin="round" rx="8.333333333333485" ry="8.333333333333258" cx="9.999999999999545" cy="10.000000000000227" transform="matrix(1.000000, 0.000000, 0.000000, 1.000000, 0.000000, 0.000000)" style="fill: none; stroke-width: 1; stroke: rgb(0, 0, 0); stroke-opacity: 1;"/></g></g></g><g id="shape-034244b6-3ff0-80df-8003-339e4ca10de4"><g class="fills" id="fills-034244b6-3ff0-80df-8003-339e4ca10de4"><path fill="none" stroke-linecap="round" stroke-linejoin="round" rx="0" ry="0" d="M7.575,7.500C7.980,6.350,9.154,5.660,10.356,5.866C11.557,6.072,12.435,7.114,12.433,8.333C12.433,10.000,9.933,10.833,9.933,10.833" style="fill: none;"/></g><g id="strokes-034244b6-3ff0-80df-8003-339e4ca10de4" class="strokes"><g class="stroke-shape"><path stroke-linecap="round" stroke-linejoin="round" rx="0" ry="0" d="M7.575,7.500C7.980,6.350,9.154,5.660,10.356,5.866C11.557,6.072,12.435,7.114,12.433,8.333C12.433,10.000,9.933,10.833,9.933,10.833" style="fill: none; stroke-width: 1; stroke: rgb(0, 0, 0); stroke-opacity: 1;"/></g></g></g><g id="shape-034244b6-3ff0-80df-8003-339e4ca10de5"><g class="fills" id="fills-034244b6-3ff0-80df-8003-339e4ca10de5"><path fill="none" stroke-linejoin="round" stroke-linecap="round" rx="0" ry="0" d="M10.000,14.167L10.000,14.167Z" style="fill: none;"/></g><g id="strokes-034244b6-3ff0-80df-8003-339e4ca10de5" class="strokes"><g class="stroke-shape"><path stroke-linejoin="round" stroke-linecap="round" rx="0" ry="0" d="M10.000,14.167L10.000,14.167Z" style="fill: none; stroke-width: 1; stroke: rgb(0, 0, 0); stroke-opacity: 1;"/></g></g></g></g></svg>