<svg xmlns:xlink="http://www.w3.org/1999/xlink" width="16" xmlns="http://www.w3.org/2000/svg" height="16" id="screenshot-034244b6-3ff0-80df-8003-339e4ca10dc9" viewBox="-0.5 -0.5 16 16" style="-webkit-print-color-adjust: exact;" fill="none" version="1.1"><g id="shape-034244b6-3ff0-80df-8003-339e4ca10dc9" width="24" class="feather feather-key" height="24" rx="0" ry="0" style="fill: rgb(0, 0, 0);"><g id="shape-034244b6-3ff0-80df-8003-339e4ca10dce"><g class="fills" id="fills-034244b6-3ff0-80df-8003-339e4ca10dce"><path fill="none" stroke-linecap="round" stroke-linejoin="round" rx="0" ry="0" d="M13.125,1.250L11.875,2.500M7.119,7.256C7.997,8.123,8.343,9.393,8.027,10.585C7.710,11.778,6.779,12.709,5.587,13.026C4.394,13.342,3.124,12.996,2.257,12.118C0.955,10.769,0.973,8.625,2.299,7.299C3.625,5.973,5.769,5.954,7.119,7.256ZZM7.119,7.256L9.688,4.688M9.688,4.688L11.563,6.563L13.750,4.375L11.875,2.500M9.688,4.688L11.875,2.500" style="fill: none;"/></g><g id="strokes-034244b6-3ff0-80df-8003-339e4ca10dce" class="strokes"><g class="stroke-shape"><path stroke-linecap="round" stroke-linejoin="round" rx="0" ry="0" d="M13.125,1.250L11.875,2.500M7.119,7.256C7.997,8.123,8.343,9.393,8.027,10.585C7.710,11.778,6.779,12.709,5.587,13.026C4.394,13.342,3.124,12.996,2.257,12.118C0.955,10.769,0.973,8.625,2.299,7.299C3.625,5.973,5.769,5.954,7.119,7.256ZZM7.119,7.256L9.688,4.688M9.688,4.688L11.563,6.563L13.750,4.375L11.875,2.500M9.688,4.688L11.875,2.500" style="fill: none; stroke-width: 1; stroke: rgb(0, 0, 0); stroke-opacity: 1;"/></g></g></g></g></svg>