<svg xmlns:xlink="http://www.w3.org/1999/xlink" width="16" xmlns="http://www.w3.org/2000/svg" height="16" id="screenshot-034244b6-3ff0-80df-8003-339e4ca0c43c" viewBox="-0.5 -0.5 16 16" style="-webkit-print-color-adjust: exact;" fill="none" version="1.1"><g id="shape-034244b6-3ff0-80df-8003-339e4ca0c43c" width="24" class="feather feather-mic" height="24" rx="0" ry="0" style="fill: rgb(0, 0, 0);"><g id="shape-034244b6-3ff0-80df-8003-339e4ca0c441"><g class="fills" id="fills-034244b6-3ff0-80df-8003-339e4ca0c441"><path fill="none" stroke-linecap="round" stroke-linejoin="round" rx="0" ry="0" d="M7.500,0.625C6.464,0.625,5.625,1.464,5.625,2.500L5.625,7.500C5.625,8.536,6.464,9.375,7.500,9.375C8.536,9.375,9.375,8.536,9.375,7.500L9.375,2.500C9.375,1.464,8.536,0.625,7.500,0.625ZZ" style="fill: none;"/></g><g id="strokes-034244b6-3ff0-80df-8003-339e4ca0c441" class="strokes"><g class="stroke-shape"><path stroke-linecap="round" stroke-linejoin="round" rx="0" ry="0" d="M7.500,0.625C6.464,0.625,5.625,1.464,5.625,2.500L5.625,7.500C5.625,8.536,6.464,9.375,7.500,9.375C8.536,9.375,9.375,8.536,9.375,7.500L9.375,2.500C9.375,1.464,8.536,0.625,7.500,0.625ZZ" style="fill: none; stroke-width: 1; stroke: rgb(255, 255, 255); stroke-opacity: 1;"/></g></g></g><g id="shape-034244b6-3ff0-80df-8003-339e4ca0c442"><g class="fills" id="fills-034244b6-3ff0-80df-8003-339e4ca0c442"><path fill="none" stroke-linecap="round" stroke-linejoin="round" rx="0" ry="0" d="M11.875,6.250L11.875,7.500C11.875,9.916,9.916,11.875,7.500,11.875C5.084,11.875,3.125,9.916,3.125,7.500L3.125,6.250" style="fill: none;"/></g><g id="strokes-034244b6-3ff0-80df-8003-339e4ca0c442" class="strokes"><g class="stroke-shape"><path stroke-linecap="round" stroke-linejoin="round" rx="0" ry="0" d="M11.875,6.250L11.875,7.500C11.875,9.916,9.916,11.875,7.500,11.875C5.084,11.875,3.125,9.916,3.125,7.500L3.125,6.250" style="fill: none; stroke-width: 1; stroke: rgb(255, 255, 255); stroke-opacity: 1;"/></g></g></g><g id="shape-034244b6-3ff0-80df-8003-339e4ca0c443"><g class="fills" id="fills-034244b6-3ff0-80df-8003-339e4ca0c443"><path fill="none" stroke-linejoin="round" stroke-linecap="round" rx="0" ry="0" d="M7.500,11.875L7.500,14.375" style="fill: none;"/></g><g id="strokes-034244b6-3ff0-80df-8003-339e4ca0c443" class="strokes"><g class="stroke-shape"><path stroke-linejoin="round" stroke-linecap="round" rx="0" ry="0" d="M7.500,11.875L7.500,14.375" style="fill: none; stroke-width: 1; stroke: rgb(255, 255, 255); stroke-opacity: 1;"/></g></g></g><g id="shape-034244b6-3ff0-80df-8003-339e4ca0c444"><g class="fills" id="fills-034244b6-3ff0-80df-8003-339e4ca0c444"><path fill="none" stroke-linejoin="round" stroke-linecap="round" rx="0" ry="0" d="M5.000,14.375L10.000,14.375" style="fill: none;"/></g><g id="strokes-034244b6-3ff0-80df-8003-339e4ca0c444" class="strokes"><g class="stroke-shape"><path stroke-linejoin="round" stroke-linecap="round" rx="0" ry="0" d="M5.000,14.375L10.000,14.375" style="fill: none; stroke-width: 1; stroke: rgb(255, 255, 255); stroke-opacity: 1;"/></g></g></g></g></svg>