<svg xmlns:xlink="http://www.w3.org/1999/xlink" width="10.609" xmlns="http://www.w3.org/2000/svg" height="14" id="screenshot-034244b6-3ff0-80df-8003-339e4ca0c461" viewBox="-0.5 -0.5 10.609 14" style="-webkit-print-color-adjust: exact;" fill="none" version="1.1"><g id="shape-034244b6-3ff0-80df-8003-339e4ca0c461" rx="0" ry="0"><g id="shape-034244b6-3ff0-80df-8003-339e4ca0c465" rx="0" ry="0"><g id="shape-034244b6-3ff0-80df-8003-339e4ca0c467"><g class="fills" id="fills-034244b6-3ff0-80df-8003-339e4ca0c467"><rect rx="0" ry="0" x="4.239130434782055" y="0.5652173913044862" transform="matrix(1.000000, 0.000000, 0.000000, 1.000000, 0.000000, 0.000000)" width="1.1304347826089725" height="5.652173913043498" style="fill: rgb(255, 255, 255); fill-opacity: 1;"/></g></g><g id="shape-034244b6-3ff0-80df-8003-339e4ca0c468"><g class="fills" id="fills-034244b6-3ff0-80df-8003-339e4ca0c468"><rect rx="0" ry="0" x="3.391304347826008" y="2.26086956521749" transform="matrix(1.000000, 0.000000, 0.000000, 1.000000, 0.000000, 0.000000)" width="2.826086956521067" height="2.2608695652170354" style="fill: rgb(255, 255, 255); fill-opacity: 1;"/></g></g></g><g id="shape-034244b6-3ff0-80df-8003-339e4ca0c466"><g class="fills" id="fills-034244b6-3ff0-80df-8003-339e4ca0c466"><path d="M4.804347826086996,0 h0 a4.804347826086996,4.804347826086996 0 0 1 4.804347826086996,4.804347826086996 v6.273913043478205 a1.9217391304347984,1.9217391304347984 0 0 1 -1.9217391304347984,1.9217391304347984 h-5.765217391304395 a1.9217391304347984,1.9217391304347984 0 0 1 -1.9217391304347984,-1.9217391304347984 v-6.273913043478206 a4.804347826086996,4.804347826086996 0 0 1 4.804347826086996,-4.804347826086996 z" x="0" y="0" transform="matrix(1.000000, 0.000000, 0.000000, 1.000000, 0.000000, 0.000000)" width="9.608695652173992" height="13"/></g><g id="strokes-034244b6-3ff0-80df-8003-339e4ca0c466" class="strokes"><g class="stroke-shape"><path d="M4.804347826086996,0 h0 a4.804347826086996,4.804347826086996 0 0 1 4.804347826086996,4.804347826086996 v6.273913043478205 a1.9217391304347984,1.9217391304347984 0 0 1 -1.9217391304347984,1.9217391304347984 h-5.765217391304395 a1.9217391304347984,1.9217391304347984 0 0 1 -1.9217391304347984,-1.9217391304347984 v-6.273913043478206 a4.804347826086996,4.804347826086996 0 0 1 4.804347826086996,-4.804347826086996 z" x="0" y="0" transform="matrix(1.000000, 0.000000, 0.000000, 1.000000, 0.000000, 0.000000)" width="9.608695652173992" height="13" style="fill: none; stroke-width: 1; stroke: rgb(255, 255, 255); stroke-opacity: 1;"/></g></g></g></g></svg>