<svg xmlns:xlink="http://www.w3.org/1999/xlink" width="21" xmlns="http://www.w3.org/2000/svg" height="21" id="screenshot-034244b6-3ff0-80df-8003-339e4ca10ddb" viewBox="-0.5 -0.5 21 21" style="-webkit-print-color-adjust: exact;" fill="none" version="1.1"><g id="shape-034244b6-3ff0-80df-8003-339e4ca10ddb" width="24" class="feather feather-settings" height="24" rx="0" ry="0" style="fill: rgb(0, 0, 0);"><g id="shape-034244b6-3ff0-80df-8003-339e4ca10dde"><g class="fills" id="fills-034244b6-3ff0-80df-8003-339e4ca10dde"><ellipse cy="10" stroke-linejoin="round" transform="matrix(1.000000, 0.000000, 0.000000, 1.000000, 0.000000, 0.000000)" style="fill: none;" ry="2.5" fill="none" stroke-linecap="round" rx="2.5" cx="10"/></g><g id="strokes-034244b6-3ff0-80df-8003-339e4ca10dde" class="strokes"><g class="stroke-shape"><ellipse stroke-linecap="round" stroke-linejoin="round" rx="2.5" ry="2.5" cx="10" cy="10" transform="matrix(1.000000, 0.000000, 0.000000, 1.000000, 0.000000, 0.000000)" style="fill: none; stroke-width: 1; stroke: rgb(255, 255, 255); stroke-opacity: 1;"/></g></g></g><g id="shape-034244b6-3ff0-80df-8003-339e4ca10ddf"><g class="fills" id="fills-034244b6-3ff0-80df-8003-339e4ca10ddf"><path fill="none" stroke-linecap="round" stroke-linejoin="round" rx="0" ry="0" d="M16.167,12.500C15.940,13.014,16.049,13.615,16.442,14.017L16.492,14.067C16.805,14.379,16.980,14.803,16.980,15.246C16.980,15.688,16.805,16.112,16.492,16.425C16.179,16.738,15.755,16.914,15.313,16.914C14.870,16.914,14.446,16.738,14.133,16.425L14.083,16.375C13.682,15.982,13.081,15.873,12.567,16.100C12.063,16.316,11.736,16.810,11.733,17.358L11.733,17.500C11.733,18.420,10.987,19.167,10.067,19.167C9.146,19.167,8.400,18.420,8.400,17.500L8.400,17.425C8.387,16.861,8.030,16.362,7.500,16.167C6.986,15.940,6.385,16.049,5.983,16.442L5.933,16.492C5.621,16.805,5.197,16.980,4.754,16.980C4.312,16.980,3.888,16.805,3.575,16.492C3.262,16.179,3.086,15.755,3.086,15.313C3.086,14.870,3.262,14.446,3.575,14.133L3.625,14.083C4.018,13.682,4.127,13.081,3.900,12.567C3.684,12.063,3.190,11.736,2.642,11.733L2.500,11.733C1.580,11.733,0.833,10.987,0.833,10.067C0.833,9.146,1.580,8.400,2.500,8.400L2.575,8.400C3.139,8.387,3.638,8.030,3.833,7.500C4.060,6.986,3.951,6.385,3.558,5.983L3.508,5.933C3.195,5.621,3.020,5.197,3.020,4.754C3.020,4.312,3.195,3.888,3.508,3.575C3.821,3.262,4.245,3.086,4.688,3.086C5.130,3.086,5.554,3.262,5.867,3.575L5.917,3.625C6.318,4.018,6.919,4.127,7.433,3.900L7.500,3.900C8.004,3.684,8.331,3.190,8.333,2.642L8.333,2.500C8.333,1.580,9.080,0.833,10.000,0.833C10.920,0.833,11.667,1.580,11.667,2.500L11.667,2.575C11.669,3.123,11.996,3.617,12.500,3.833C13.014,4.060,13.615,3.951,14.017,3.558L14.067,3.508C14.379,3.195,14.803,3.020,15.246,3.020C15.688,3.020,16.112,3.195,16.425,3.508C16.738,3.821,16.914,4.245,16.914,4.688C16.914,5.130,16.738,5.554,16.425,5.867L16.375,5.917C15.982,6.318,15.873,6.919,16.100,7.433L16.100,7.500C16.316,8.004,16.810,8.331,17.358,8.333L17.500,8.333C18.420,8.333,19.167,9.080,19.167,10.000C19.167,10.920,18.420,11.667,17.500,11.667L17.425,11.667C16.877,11.669,16.383,11.996,16.167,12.500ZZ" style="fill: none;"/></g><g id="strokes-034244b6-3ff0-80df-8003-339e4ca10ddf" class="strokes"><g class="stroke-shape"><path stroke-linecap="round" stroke-linejoin="round" rx="0" ry="0" d="M16.167,12.500C15.940,13.014,16.049,13.615,16.442,14.017L16.492,14.067C16.805,14.379,16.980,14.803,16.980,15.246C16.980,15.688,16.805,16.112,16.492,16.425C16.179,16.738,15.755,16.914,15.313,16.914C14.870,16.914,14.446,16.738,14.133,16.425L14.083,16.375C13.682,15.982,13.081,15.873,12.567,16.100C12.063,16.316,11.736,16.810,11.733,17.358L11.733,17.500C11.733,18.420,10.987,19.167,10.067,19.167C9.146,19.167,8.400,18.420,8.400,17.500L8.400,17.425C8.387,16.861,8.030,16.362,7.500,16.167C6.986,15.940,6.385,16.049,5.983,16.442L5.933,16.492C5.621,16.805,5.197,16.980,4.754,16.980C4.312,16.980,3.888,16.805,3.575,16.492C3.262,16.179,3.086,15.755,3.086,15.313C3.086,14.870,3.262,14.446,3.575,14.133L3.625,14.083C4.018,13.682,4.127,13.081,3.900,12.567C3.684,12.063,3.190,11.736,2.642,11.733L2.500,11.733C1.580,11.733,0.833,10.987,0.833,10.067C0.833,9.146,1.580,8.400,2.500,8.400L2.575,8.400C3.139,8.387,3.638,8.030,3.833,7.500C4.060,6.986,3.951,6.385,3.558,5.983L3.508,5.933C3.195,5.621,3.020,5.197,3.020,4.754C3.020,4.312,3.195,3.888,3.508,3.575C3.821,3.262,4.245,3.086,4.688,3.086C5.130,3.086,5.554,3.262,5.867,3.575L5.917,3.625C6.318,4.018,6.919,4.127,7.433,3.900L7.500,3.900C8.004,3.684,8.331,3.190,8.333,2.642L8.333,2.500C8.333,1.580,9.080,0.833,10.000,0.833C10.920,0.833,11.667,1.580,11.667,2.500L11.667,2.575C11.669,3.123,11.996,3.617,12.500,3.833C13.014,4.060,13.615,3.951,14.017,3.558L14.067,3.508C14.379,3.195,14.803,3.020,15.246,3.020C15.688,3.020,16.112,3.195,16.425,3.508C16.738,3.821,16.914,4.245,16.914,4.688C16.914,5.130,16.738,5.554,16.425,5.867L16.375,5.917C15.982,6.318,15.873,6.919,16.100,7.433L16.100,7.500C16.316,8.004,16.810,8.331,17.358,8.333L17.500,8.333C18.420,8.333,19.167,9.080,19.167,10.000C19.167,10.920,18.420,11.667,17.500,11.667L17.425,11.667C16.877,11.669,16.383,11.996,16.167,12.500ZZ" style="fill: none; stroke-width: 1; stroke: rgb(255, 255, 255); stroke-opacity: 1;"/></g></g></g></g></svg>